<?xml version="1.0" encoding="iso-8859-1"?>
<!-- Generator: Adobe Illustrator 19.0.0, SVG Export Plug-In . SVG Version: 6.00 Build 0)  -->
<svg version="1.1" id="Capa_1" xmlns="http://www.w3.org/2000/svg" xmlns:xlink="http://www.w3.org/1999/xlink" x="0px" y="0px"
	 viewBox="0 0 512 512" style="enable-background:new 0 0 512 512;" xml:space="preserve">
<g>
	<g>
		<g>
			<path d="M512,252.096v-32H400v-32h-48v-32c0.006-25.107-9.861-49.209-27.472-67.104l41.184-68.656l-27.424-16.48l-39.776,66.288
				c-26.758-13.397-58.266-13.397-85.024,0L173.712,3.856l-27.424,16.48l41.184,68.656c-17.611,17.895-27.478,41.997-27.472,67.104
				v32h-48v32H0v32h112v48H0v32h112v32c0.012,13.84,2.033,27.605,6,40.864l-75.824,75.824L64.8,503.408l66.912-66.928
				c39.822,68.677,127.778,92.069,196.456,52.247c23.411-13.574,42.514-33.481,55.112-57.431l69.408,69.392l22.624-22.624
				l-79.616-79.6c2.815-11.241,4.26-22.78,4.304-34.368v-32h112v-32H400v-48H512z M192,156.096c0-35.346,28.654-64,64-64
				c35.346,0,64,28.654,64,64v32H192V156.096z M368,364.096c-0.106,55.61-40.966,102.735-96,110.72v-94.72h-32v94.72
				c-55.034-7.985-95.894-55.11-96-110.72v-144h224V364.096z"/>
			<rect x="240" y="252.096" width="32" height="32"/>
			<rect x="240" y="316.096" width="32" height="32"/>
		</g>
	</g>
</g>
<g>
</g>
<g>
</g>
<g>
</g>
<g>
</g>
<g>
</g>
<g>
</g>
<g>
</g>
<g>
</g>
<g>
</g>
<g>
</g>
<g>
</g>
<g>
</g>
<g>
</g>
<g>
</g>
<g>
</g>
</svg>
